<svg width="24" height="24" viewBox="0 0 24 24" fill="none" xmlns="http://www.w3.org/2000/svg">
<g clip-path="url(#clip0)">
<path d="M11.5367 2.27418C13.7735 2.27418 15.8747 3.12773 17.4596 4.68168C19.0491 6.24013 19.9245 8.31387 19.9245 10.5209C19.9245 12.3358 19.3364 14.0575 18.2237 15.4998C17.2872 16.7138 16.0082 17.6593 14.5725 18.21L14.2625 18.3219L14.2656 19.1478H14.6339C14.8961 19.1478 15.1087 19.3577 15.1087 19.6165C15.1087 19.8466 14.9407 20.038 14.7192 20.0777L14.6339 20.0853H14.2692L14.2731 21.1051H14.6339C14.8961 21.1051 15.1087 21.3151 15.1087 21.5739C15.1087 21.804 14.9407 21.9954 14.7192 22.0351L14.6339 22.0426H14.2766L14.2823 23.5295C14.2827 23.6542 14.2329 23.7738 14.1438 23.8621C14.077 23.9283 13.9922 23.9728 13.9008 23.9909L13.8075 24H9.2647C9.13851 24 9.01746 23.9504 8.92839 23.8621C8.86156 23.7959 8.81684 23.712 8.79885 23.6216L8.78996 23.5295L8.7956 22.0426H8.43831C8.17615 22.0426 7.96356 21.8327 7.96356 21.5739C7.96356 21.3438 8.13154 21.1524 8.35298 21.1127L8.43831 21.1051H8.79917L8.80306 20.0853H8.43831C8.17615 20.0853 7.96356 19.8754 7.96356 19.6165C7.96356 19.3865 8.13154 19.195 8.35298 19.1553L8.43831 19.1478H8.80662L8.80975 18.3219C7.22946 17.7867 5.82074 16.7783 4.81409 15.4548C3.69758 13.9868 3.12166 12.2387 3.14863 10.3994C3.17982 8.27169 4.07149 6.24702 5.65928 4.69827C7.16705 3.22763 9.10671 2.37717 11.152 2.28278L11.4758 2.27418H11.5367ZM13.3271 22.0426H9.74515L9.7413 23.0625H13.331L13.3271 22.0426ZM13.3197 20.0852H9.75255L9.74871 21.1051H13.3236L13.3197 20.0852ZM11.5365 3.21163L11.4824 3.21182C7.53648 3.23915 4.15481 6.53685 4.09803 10.4129C4.05017 13.6777 6.23861 16.6044 9.42004 17.5302C9.59368 17.5807 9.72043 17.7231 9.7526 17.894L9.76058 17.9815L9.75611 19.1477H13.3162L13.3117 17.9815C13.3109 17.7731 13.4497 17.5891 13.6522 17.5302C16.7862 16.6182 18.975 13.7359 18.975 10.5208C18.975 8.5655 18.1993 6.72805 16.7905 5.34688C15.385 3.96871 13.5208 3.21163 11.5365 3.21163ZM12.3649 4.99443C12.5867 4.99443 12.7666 5.17199 12.7666 5.39104V5.7126C13.2461 5.83218 13.6982 6.02005 14.1117 6.26511L14.34 6.03889C14.497 5.88336 14.7521 5.88336 14.9091 6.03889L16.0822 7.2012C16.2384 7.35599 16.2384 7.60634 16.0822 7.76113L15.8519 7.98931C16.0993 8.39909 16.2889 8.84703 16.4096 9.32211H16.7326C16.9545 9.32211 17.1343 9.49967 17.1343 9.71872V11.3639C17.1343 11.5829 16.9545 11.7605 16.7326 11.7605H16.4095C16.2888 12.2356 16.0992 12.6835 15.8519 13.0933L16.0822 13.3214C16.2384 13.4762 16.2384 13.7266 16.0822 13.8813L14.9091 15.0437C14.7521 15.1992 14.497 15.1992 14.34 15.0437L14.1117 14.8174C13.6982 15.0625 13.2461 15.2504 12.7666 15.37V15.6915C12.7666 15.9106 12.5867 16.0881 12.3649 16.0881H10.7073C10.4854 16.0881 10.3056 15.9106 10.3056 15.6915V15.37C9.82614 15.2504 9.37404 15.0625 8.96044 14.8174L8.73213 15.0437C8.57518 15.1992 8.3201 15.1992 8.1631 15.0437L6.99 13.8813C6.83381 13.7266 6.83381 13.4762 6.99 13.3214L7.2203 13.0933C6.97295 12.6835 6.78334 12.2356 6.66266 11.7605H6.33955C6.1177 11.7605 5.93786 11.5829 5.93786 11.3639V9.71872C5.93786 9.49967 6.1177 9.32211 6.33955 9.32211H6.66266C6.78334 8.84703 6.97295 8.39909 7.2203 7.98931L6.99 7.76113C6.83381 7.60634 6.83381 7.35599 6.99 7.2012L8.1631 6.03889C8.32005 5.88336 8.57513 5.88336 8.73213 6.03889L8.96044 6.26511C9.37399 6.02005 9.82609 5.83218 10.3056 5.7126V5.39104C10.3056 5.17199 10.4854 4.99443 10.7073 4.99443H12.3649ZM11.5361 7.72128C9.96424 7.72128 8.68997 8.98386 8.68997 10.5413C8.68997 12.0988 9.96424 13.3614 11.5361 13.3614C13.108 13.3614 14.3823 12.0988 14.3823 10.5413C14.3823 8.98386 13.108 7.72128 11.5361 7.72128ZM22.5614 11.8732C22.8236 11.8732 23.0361 12.0831 23.0361 12.342C23.0361 12.5721 22.8682 12.7635 22.6467 12.8032L22.5614 12.8107H22.063C21.8009 12.8107 21.5883 12.6008 21.5883 12.342C21.5883 12.1119 21.7563 11.9205 21.9777 11.8808L22.063 11.8732H22.5614ZM1.00922 11.8732C1.27138 11.8732 1.48397 12.0831 1.48397 12.342C1.48397 12.5721 1.316 12.7635 1.09455 12.8032L1.00922 12.8107H0.51088C0.248725 12.8107 0.0361328 12.6008 0.0361328 12.342C0.0361328 12.1119 0.204107 11.9205 0.425554 11.8808L0.51088 11.8732H1.00922ZM3.14774 3.44944L3.22235 3.50934L3.68134 3.96046C3.86716 4.14313 3.86782 4.4399 3.68286 4.62337C3.59009 4.71538 3.46827 4.76141 3.34641 4.76141C3.25554 4.76141 3.16467 4.73581 3.08584 4.68461L3.01147 4.62487L2.55248 4.17374C2.36667 3.99107 2.366 3.69431 2.55097 3.51084C2.71285 3.35026 2.9632 3.32972 3.14774 3.44944ZM20.5213 3.51084C20.6832 3.67137 20.7029 3.91869 20.5808 4.10035L20.5198 4.17374L20.0608 4.62487C19.9682 4.7159 19.847 4.76141 19.7259 4.76141C19.604 4.76141 19.4822 4.71538 19.3894 4.62337C19.2275 4.46283 19.2078 4.21555 19.3299 4.03387L19.3909 3.96046L19.8499 3.50934C20.0358 3.32671 20.3363 3.32742 20.5213 3.51084ZM11.5361 0C11.7692 0 11.963 0.165814 12.0032 0.384489L12.0109 0.468749V0.958545C12.0109 1.21744 11.7983 1.42729 11.5361 1.42729C11.3031 1.42729 11.1092 1.26148 11.069 1.04281L11.0614 0.958545V0.468749C11.0614 0.209859 11.2739 0 11.5361 0Z" fill="white"/>
</g>
<defs>
<clipPath id="clip0">
<rect width="23" height="24" fill="white" transform="translate(0.0361328)"/>
</clipPath>
</defs>
</svg>
